<mxfile host="65bd71144e">
    <diagram id="bT63evqUn_f7BxdSodKL" name="GenerarFactura">
        <mxGraphModel dx="713" dy="535" grid="1" gridSize="10" guides="1" tooltips="1" connect="1" arrows="1" fold="1" page="1" pageScale="1" pageWidth="850" pageHeight="1100" math="0" shadow="0">
            <root>
                <mxCell id="0"/>
                <mxCell id="1" parent="0"/>
                <mxCell id="4" value="" style="rounded=0;whiteSpace=wrap;html=1;" parent="1" vertex="1">
                    <mxGeometry x="40" y="10" width="1060" height="460" as="geometry"/>
                </mxCell>
                <mxCell id="5" value="JosÃ©:&lt;br&gt;GenerarFacturaCliente" style="shape=umlActor;verticalLabelPosition=bottom;verticalAlign=top;html=1;outlineConnect=0;" parent="1" vertex="1">
                    <mxGeometry x="70" y="20" width="70" height="120" as="geometry"/>
                </mxCell>
                <mxCell id="6" value="elCliente:clientes" style="rounded=1;whiteSpace=wrap;html=1;" parent="1" vertex="1">
                    <mxGeometry x="420" y="30" width="120" height="60" as="geometry"/>
                </mxCell>
                <mxCell id="7" value="laOrden:ordenes" style="rounded=1;whiteSpace=wrap;html=1;" parent="1" vertex="1">
                    <mxGeometry x="900" y="30" width="120" height="60" as="geometry"/>
                </mxCell>
                <mxCell id="8" value="GenerarFacturaCliente(elCliente,&amp;nbsp;&lt;span style=&quot;text-align: left&quot;&gt;elPedido&lt;/span&gt;)" style="text;html=1;align=center;verticalAlign=middle;resizable=0;points=[];autosize=1;strokeColor=none;" parent="1" vertex="1">
                    <mxGeometry x="165" y="200" width="250" height="20" as="geometry"/>
                </mxCell>
                <mxCell id="9" value="" style="endArrow=none;html=1;strokeWidth=5;" parent="1" edge="1">
                    <mxGeometry width="50" height="50" relative="1" as="geometry">
                        <mxPoint x="105" y="440" as="sourcePoint"/>
                        <mxPoint x="104.58000000000004" y="190" as="targetPoint"/>
                    </mxGeometry>
                </mxCell>
                <mxCell id="10" value="" style="endArrow=classic;html=1;strokeWidth=1;" parent="1" edge="1">
                    <mxGeometry width="50" height="50" relative="1" as="geometry">
                        <mxPoint x="110" y="200" as="sourcePoint"/>
                        <mxPoint x="480" y="200" as="targetPoint"/>
                    </mxGeometry>
                </mxCell>
                <mxCell id="11" value="" style="endArrow=none;html=1;strokeWidth=5;" parent="1" edge="1">
                    <mxGeometry width="50" height="50" relative="1" as="geometry">
                        <mxPoint x="480" y="380" as="sourcePoint"/>
                        <mxPoint x="480" y="190" as="targetPoint"/>
                    </mxGeometry>
                </mxCell>
                <mxCell id="12" value="" style="endArrow=none;dashed=1;html=1;dashPattern=1 3;strokeWidth=2;" parent="1" edge="1">
                    <mxGeometry width="50" height="50" relative="1" as="geometry">
                        <mxPoint x="480" y="370" as="sourcePoint"/>
                        <mxPoint x="480" y="90" as="targetPoint"/>
                    </mxGeometry>
                </mxCell>
                <mxCell id="14" value="1:Ok Para &lt;br&gt;Generar Factura" style="text;html=1;align=left;verticalAlign=middle;resizable=0;points=[];autosize=1;strokeColor=none;" parent="1" vertex="1">
                    <mxGeometry x="490" y="170" width="100" height="30" as="geometry"/>
                </mxCell>
                <mxCell id="15" value="" style="curved=1;endArrow=classic;html=1;strokeWidth=1;exitX=0;exitY=1;exitDx=0;exitDy=0;exitPerimeter=0;" parent="1" source="14" edge="1">
                    <mxGeometry width="50" height="50" relative="1" as="geometry">
                        <mxPoint x="520" y="240" as="sourcePoint"/>
                        <mxPoint x="490" y="220" as="targetPoint"/>
                        <Array as="points">
                            <mxPoint x="560" y="210"/>
                        </Array>
                    </mxGeometry>
                </mxCell>
                <mxCell id="16" value="2: ConsultarPedido(elPedido)" style="text;html=1;align=left;verticalAlign=middle;resizable=0;points=[];autosize=1;strokeColor=none;" parent="1" vertex="1">
                    <mxGeometry x="500" y="250" width="170" height="20" as="geometry"/>
                </mxCell>
                <mxCell id="17" value="" style="endArrow=classic;html=1;strokeWidth=1;" parent="1" edge="1">
                    <mxGeometry width="50" height="50" relative="1" as="geometry">
                        <mxPoint x="480" y="240" as="sourcePoint"/>
                        <mxPoint x="730" y="240" as="targetPoint"/>
                    </mxGeometry>
                </mxCell>
                <mxCell id="18" value="" style="endArrow=none;dashed=1;html=1;dashPattern=1 3;strokeWidth=2;" parent="1" edge="1">
                    <mxGeometry width="50" height="50" relative="1" as="geometry">
                        <mxPoint x="730" y="230" as="sourcePoint"/>
                        <mxPoint x="729.71" y="90" as="targetPoint"/>
                    </mxGeometry>
                </mxCell>
                <mxCell id="19" value="" style="endArrow=none;html=1;strokeWidth=5;" parent="1" edge="1">
                    <mxGeometry width="50" height="50" relative="1" as="geometry">
                        <mxPoint x="730" y="360" as="sourcePoint"/>
                        <mxPoint x="730" y="230" as="targetPoint"/>
                    </mxGeometry>
                </mxCell>
                <mxCell id="22" value="elPedido:pedidos" style="rounded=1;whiteSpace=wrap;html=1;" parent="1" vertex="1">
                    <mxGeometry x="670" y="30" width="120" height="60" as="geometry"/>
                </mxCell>
                <mxCell id="23" value="" style="endArrow=none;dashed=1;html=1;dashPattern=1 3;strokeWidth=2;" parent="1" edge="1">
                    <mxGeometry width="50" height="50" relative="1" as="geometry">
                        <mxPoint x="960" y="350" as="sourcePoint"/>
                        <mxPoint x="959.6600000000001" y="85" as="targetPoint"/>
                    </mxGeometry>
                </mxCell>
                <mxCell id="24" value="3:Ok Para &lt;br&gt;Consultar Pedido" style="text;html=1;align=left;verticalAlign=middle;resizable=0;points=[];autosize=1;strokeColor=none;" parent="1" vertex="1">
                    <mxGeometry x="740" y="200" width="110" height="30" as="geometry"/>
                </mxCell>
                <mxCell id="25" value="" style="curved=1;endArrow=classic;html=1;strokeWidth=1;exitX=0;exitY=1;exitDx=0;exitDy=0;exitPerimeter=0;" parent="1" edge="1">
                    <mxGeometry width="50" height="50" relative="1" as="geometry">
                        <mxPoint x="740" y="240" as="sourcePoint"/>
                        <mxPoint x="740" y="260" as="targetPoint"/>
                        <Array as="points">
                            <mxPoint x="810" y="250"/>
                        </Array>
                    </mxGeometry>
                </mxCell>
                <mxCell id="26" value="" style="endArrow=classic;html=1;strokeWidth=1;" edge="1" parent="1">
                    <mxGeometry width="50" height="50" relative="1" as="geometry">
                        <mxPoint x="730" y="270" as="sourcePoint"/>
                        <mxPoint x="960" y="270" as="targetPoint"/>
                    </mxGeometry>
                </mxCell>
                <mxCell id="27" value="" style="endArrow=none;html=1;strokeWidth=5;" edge="1" parent="1">
                    <mxGeometry width="50" height="50" relative="1" as="geometry">
                        <mxPoint x="960" y="360" as="sourcePoint"/>
                        <mxPoint x="959.66" y="260" as="targetPoint"/>
                    </mxGeometry>
                </mxCell>
                <mxCell id="28" value="4: ConsultarOrden(laOrden)" style="text;html=1;align=left;verticalAlign=middle;resizable=0;points=[];autosize=1;strokeColor=none;" vertex="1" parent="1">
                    <mxGeometry x="760" y="280" width="160" height="20" as="geometry"/>
                </mxCell>
                <mxCell id="29" value="3:Ok Para &lt;br&gt;Consultar Orden" style="text;html=1;align=left;verticalAlign=middle;resizable=0;points=[];autosize=1;strokeColor=none;" vertex="1" parent="1">
                    <mxGeometry x="980" y="230" width="100" height="30" as="geometry"/>
                </mxCell>
                <mxCell id="30" value="" style="curved=1;endArrow=classic;html=1;strokeWidth=1;exitX=0;exitY=1;exitDx=0;exitDy=0;exitPerimeter=0;" edge="1" parent="1">
                    <mxGeometry width="50" height="50" relative="1" as="geometry">
                        <mxPoint x="970" y="270" as="sourcePoint"/>
                        <mxPoint x="970" y="290" as="targetPoint"/>
                        <Array as="points">
                            <mxPoint x="1040" y="280"/>
                        </Array>
                    </mxGeometry>
                </mxCell>
                <mxCell id="32" value="" style="endArrow=classic;html=1;strokeWidth=1;dashed=1;" edge="1" parent="1">
                    <mxGeometry width="50" height="50" relative="1" as="geometry">
                        <mxPoint x="480" y="380" as="sourcePoint"/>
                        <mxPoint x="110" y="380" as="targetPoint"/>
                    </mxGeometry>
                </mxCell>
            </root>
        </mxGraphModel>
    </diagram>
    <diagram id="VQeN4g9T_EhXaeS6TQJ5" name="Despachos">
        <mxGraphModel dx="713" dy="535" grid="1" gridSize="10" guides="1" tooltips="1" connect="1" arrows="1" fold="1" page="1" pageScale="1" pageWidth="850" pageHeight="1100" math="0" shadow="0">
            <root>
                <mxCell id="8x1acGrPuV9PeI1Z__Kl-0"/>
                <mxCell id="8x1acGrPuV9PeI1Z__Kl-1" parent="8x1acGrPuV9PeI1Z__Kl-0"/>
                <mxCell id="VBnra3NMcXZUw9Knpia8-0" value="" style="rounded=0;whiteSpace=wrap;html=1;" vertex="1" parent="8x1acGrPuV9PeI1Z__Kl-1">
                    <mxGeometry x="30" y="10" width="1060" height="510" as="geometry"/>
                </mxCell>
                <mxCell id="VBnra3NMcXZUw9Knpia8-1" value="JosÃ©:&lt;br&gt;DespacharColaPedidos" style="shape=umlActor;verticalLabelPosition=bottom;verticalAlign=top;html=1;outlineConnect=0;" vertex="1" parent="8x1acGrPuV9PeI1Z__Kl-1">
                    <mxGeometry x="70" y="20" width="70" height="120" as="geometry"/>
                </mxCell>
                <mxCell id="VBnra3NMcXZUw9Knpia8-2" value="elPedido:pedidos" style="rounded=1;whiteSpace=wrap;html=1;" vertex="1" parent="8x1acGrPuV9PeI1Z__Kl-1">
                    <mxGeometry x="420" y="30" width="120" height="60" as="geometry"/>
                </mxCell>
                <mxCell id="VBnra3NMcXZUw9Knpia8-3" value="elCliente:clientes" style="rounded=1;whiteSpace=wrap;html=1;" vertex="1" parent="8x1acGrPuV9PeI1Z__Kl-1">
                    <mxGeometry x="900" y="30" width="120" height="60" as="geometry"/>
                </mxCell>
                <mxCell id="VBnra3NMcXZUw9Knpia8-4" value="DespacharColaPedidos()" style="text;html=1;align=center;verticalAlign=middle;resizable=0;points=[];autosize=1;strokeColor=none;" vertex="1" parent="8x1acGrPuV9PeI1Z__Kl-1">
                    <mxGeometry x="215" y="200" width="150" height="20" as="geometry"/>
                </mxCell>
                <mxCell id="VBnra3NMcXZUw9Knpia8-5" value="" style="endArrow=none;html=1;strokeWidth=5;" edge="1" parent="8x1acGrPuV9PeI1Z__Kl-1">
                    <mxGeometry width="50" height="50" relative="1" as="geometry">
                        <mxPoint x="105" y="490" as="sourcePoint"/>
                        <mxPoint x="104.57999999999993" y="190" as="targetPoint"/>
                    </mxGeometry>
                </mxCell>
                <mxCell id="VBnra3NMcXZUw9Knpia8-6" value="" style="endArrow=classic;html=1;strokeWidth=1;" edge="1" parent="8x1acGrPuV9PeI1Z__Kl-1">
                    <mxGeometry width="50" height="50" relative="1" as="geometry">
                        <mxPoint x="110" y="200" as="sourcePoint"/>
                        <mxPoint x="480" y="200" as="targetPoint"/>
                    </mxGeometry>
                </mxCell>
                <mxCell id="VBnra3NMcXZUw9Knpia8-7" value="" style="endArrow=none;html=1;strokeWidth=5;" edge="1" parent="8x1acGrPuV9PeI1Z__Kl-1">
                    <mxGeometry width="50" height="50" relative="1" as="geometry">
                        <mxPoint x="480" y="460" as="sourcePoint"/>
                        <mxPoint x="480" y="190" as="targetPoint"/>
                    </mxGeometry>
                </mxCell>
                <mxCell id="VBnra3NMcXZUw9Knpia8-8" value="" style="endArrow=none;dashed=1;html=1;dashPattern=1 3;strokeWidth=2;" edge="1" parent="8x1acGrPuV9PeI1Z__Kl-1">
                    <mxGeometry width="50" height="50" relative="1" as="geometry">
                        <mxPoint x="480" y="460" as="sourcePoint"/>
                        <mxPoint x="480" y="89.99999999999989" as="targetPoint"/>
                    </mxGeometry>
                </mxCell>
                <mxCell id="VBnra3NMcXZUw9Knpia8-9" value="1:Ok Para&amp;nbsp;&lt;span style=&quot;text-align: center&quot;&gt;Despachar &lt;br&gt;ColaPedidos&lt;/span&gt;" style="text;html=1;align=left;verticalAlign=middle;resizable=0;points=[];autosize=1;strokeColor=none;" vertex="1" parent="8x1acGrPuV9PeI1Z__Kl-1">
                    <mxGeometry x="490" y="160" width="130" height="30" as="geometry"/>
                </mxCell>
                <mxCell id="VBnra3NMcXZUw9Knpia8-10" value="" style="curved=1;endArrow=classic;html=1;strokeWidth=1;exitX=0;exitY=1;exitDx=0;exitDy=0;exitPerimeter=0;" edge="1" parent="8x1acGrPuV9PeI1Z__Kl-1" source="VBnra3NMcXZUw9Knpia8-9">
                    <mxGeometry width="50" height="50" relative="1" as="geometry">
                        <mxPoint x="520" y="240" as="sourcePoint"/>
                        <mxPoint x="490" y="220" as="targetPoint"/>
                        <Array as="points">
                            <mxPoint x="560" y="210"/>
                        </Array>
                    </mxGeometry>
                </mxCell>
                <mxCell id="VBnra3NMcXZUw9Knpia8-11" value="[TieneOrdenProduccion] &lt;br&gt;2: ConsultarOrden(elPedido)" style="text;html=1;align=left;verticalAlign=middle;resizable=0;points=[];autosize=1;strokeColor=none;" vertex="1" parent="8x1acGrPuV9PeI1Z__Kl-1">
                    <mxGeometry x="530" y="230" width="170" height="30" as="geometry"/>
                </mxCell>
                <mxCell id="VBnra3NMcXZUw9Knpia8-12" value="" style="endArrow=classic;html=1;strokeWidth=1;" edge="1" parent="8x1acGrPuV9PeI1Z__Kl-1">
                    <mxGeometry width="50" height="50" relative="1" as="geometry">
                        <mxPoint x="480" y="270" as="sourcePoint"/>
                        <mxPoint x="730" y="270" as="targetPoint"/>
                    </mxGeometry>
                </mxCell>
                <mxCell id="VBnra3NMcXZUw9Knpia8-13" value="" style="endArrow=none;dashed=1;html=1;dashPattern=1 3;strokeWidth=2;" edge="1" parent="8x1acGrPuV9PeI1Z__Kl-1">
                    <mxGeometry width="50" height="50" relative="1" as="geometry">
                        <mxPoint x="730" y="230" as="sourcePoint"/>
                        <mxPoint x="729.71" y="89.99999999999989" as="targetPoint"/>
                    </mxGeometry>
                </mxCell>
                <mxCell id="VBnra3NMcXZUw9Knpia8-14" value="" style="endArrow=none;html=1;strokeWidth=5;" edge="1" parent="8x1acGrPuV9PeI1Z__Kl-1">
                    <mxGeometry width="50" height="50" relative="1" as="geometry">
                        <mxPoint x="730" y="310" as="sourcePoint"/>
                        <mxPoint x="730" y="230" as="targetPoint"/>
                    </mxGeometry>
                </mxCell>
                <mxCell id="VBnra3NMcXZUw9Knpia8-15" value="laOrden:ordenes" style="rounded=1;whiteSpace=wrap;html=1;" vertex="1" parent="8x1acGrPuV9PeI1Z__Kl-1">
                    <mxGeometry x="670" y="30" width="120" height="60" as="geometry"/>
                </mxCell>
                <mxCell id="VBnra3NMcXZUw9Knpia8-16" value="" style="endArrow=none;dashed=1;html=1;dashPattern=1 3;strokeWidth=2;" edge="1" parent="8x1acGrPuV9PeI1Z__Kl-1">
                    <mxGeometry width="50" height="50" relative="1" as="geometry">
                        <mxPoint x="960" y="350" as="sourcePoint"/>
                        <mxPoint x="959.6599999999999" y="84.99999999999989" as="targetPoint"/>
                    </mxGeometry>
                </mxCell>
                <mxCell id="VBnra3NMcXZUw9Knpia8-17" value="3: Ok: para Consultar&lt;br&gt;Orden" style="text;html=1;align=left;verticalAlign=middle;resizable=0;points=[];autosize=1;strokeColor=none;" vertex="1" parent="8x1acGrPuV9PeI1Z__Kl-1">
                    <mxGeometry x="750" y="230" width="130" height="30" as="geometry"/>
                </mxCell>
                <mxCell id="VBnra3NMcXZUw9Knpia8-18" value="" style="curved=1;endArrow=classic;html=1;strokeWidth=1;exitX=0;exitY=1;exitDx=0;exitDy=0;exitPerimeter=0;" edge="1" parent="8x1acGrPuV9PeI1Z__Kl-1">
                    <mxGeometry width="50" height="50" relative="1" as="geometry">
                        <mxPoint x="740" y="270" as="sourcePoint"/>
                        <mxPoint x="740" y="290" as="targetPoint"/>
                        <Array as="points">
                            <mxPoint x="810" y="280"/>
                        </Array>
                    </mxGeometry>
                </mxCell>
                <mxCell id="VBnra3NMcXZUw9Knpia8-20" value="" style="endArrow=none;html=1;strokeWidth=5;" edge="1" parent="8x1acGrPuV9PeI1Z__Kl-1">
                    <mxGeometry width="50" height="50" relative="1" as="geometry">
                        <mxPoint x="960" y="420" as="sourcePoint"/>
                        <mxPoint x="959.6599999999999" y="260" as="targetPoint"/>
                    </mxGeometry>
                </mxCell>
                <mxCell id="VBnra3NMcXZUw9Knpia8-22" value="5:Ok Para &lt;br&gt;Consultar Cliente" style="text;html=1;align=left;verticalAlign=middle;resizable=0;points=[];autosize=1;strokeColor=none;" vertex="1" parent="8x1acGrPuV9PeI1Z__Kl-1">
                    <mxGeometry x="980" y="230" width="110" height="30" as="geometry"/>
                </mxCell>
                <mxCell id="VBnra3NMcXZUw9Knpia8-23" value="" style="curved=1;endArrow=classic;html=1;strokeWidth=1;exitX=0;exitY=1;exitDx=0;exitDy=0;exitPerimeter=0;" edge="1" parent="8x1acGrPuV9PeI1Z__Kl-1">
                    <mxGeometry width="50" height="50" relative="1" as="geometry">
                        <mxPoint x="970" y="270" as="sourcePoint"/>
                        <mxPoint x="970" y="290" as="targetPoint"/>
                        <Array as="points">
                            <mxPoint x="1040" y="280"/>
                        </Array>
                    </mxGeometry>
                </mxCell>
                <mxCell id="VBnra3NMcXZUw9Knpia8-24" value="" style="endArrow=classic;html=1;strokeWidth=1;dashed=1;" edge="1" parent="8x1acGrPuV9PeI1Z__Kl-1">
                    <mxGeometry width="50" height="50" relative="1" as="geometry">
                        <mxPoint x="475" y="460" as="sourcePoint"/>
                        <mxPoint x="105" y="460" as="targetPoint"/>
                    </mxGeometry>
                </mxCell>
                <mxCell id="FTAcX6BmO4Epn_oS_DfN-0" value="4: ConsultarCliente(elPedido)" style="text;html=1;align=left;verticalAlign=middle;resizable=0;points=[];autosize=1;strokeColor=none;" vertex="1" parent="8x1acGrPuV9PeI1Z__Kl-1">
                    <mxGeometry x="620" y="410" width="170" height="20" as="geometry"/>
                </mxCell>
                <mxCell id="FTAcX6BmO4Epn_oS_DfN-1" value="" style="endArrow=classic;html=1;strokeWidth=1;" edge="1" parent="8x1acGrPuV9PeI1Z__Kl-1">
                    <mxGeometry width="50" height="50" relative="1" as="geometry">
                        <mxPoint x="480" y="399" as="sourcePoint"/>
                        <mxPoint x="960" y="399" as="targetPoint"/>
                    </mxGeometry>
                </mxCell>
                <mxCell id="FTAcX6BmO4Epn_oS_DfN-5" value="&lt;span style=&quot;color: rgb(240 , 240 , 240) ; font-family: &amp;#34;helvetica&amp;#34; ; font-size: 12px ; font-style: normal ; font-weight: 400 ; letter-spacing: normal ; text-align: left ; text-indent: 0px ; text-transform: none ; word-spacing: 0px ; background-color: rgb(42 , 42 , 42) ; display: inline ; float: none&quot;&gt;[TieneOrdenProduccion &amp;amp;&amp;amp; &lt;br&gt;OrdenNoDespachada] &lt;/span&gt;&lt;span style=&quot;color: rgb(240 , 240 , 240) ; font-family: &amp;#34;helvetica&amp;#34; ; font-size: 12px ; font-style: normal ; letter-spacing: normal ; text-align: left ; text-indent: 0px ; text-transform: none ; word-spacing: 0px ; background-color: rgb(42 , 42 , 42) ; display: inline ; float: none&quot;&gt;&lt;b&gt;msj&lt;/b&gt;&lt;/span&gt;&lt;span style=&quot;color: rgb(240 , 240 , 240) ; font-family: &amp;#34;helvetica&amp;#34; ; font-size: 12px ; font-style: normal ; font-weight: 400 ; letter-spacing: normal ; text-align: left ; text-indent: 0px ; text-transform: none ; word-spacing: 0px ; background-color: rgb(42 , 42 , 42) ; display: inline ; float: none&quot;&gt;(&quot;No hay pedidos que despachar&quot;)&lt;/span&gt;" style="text;whiteSpace=wrap;html=1;" vertex="1" parent="8x1acGrPuV9PeI1Z__Kl-1">
                    <mxGeometry x="490" y="320" width="350" height="30" as="geometry"/>
                </mxCell>
            </root>
        </mxGraphModel>
    </diagram>
</mxfile>